<svg xmlns="http://www.w3.org/2000/svg" xmlns:xlink="http://www.w3.org/1999/xlink" width="500" zoomAndPan="magnify" viewBox="0 0 375 374.999991" height="500" preserveAspectRatio="xMidYMid meet" version="1.0"><defs><g/><clipPath id="ddb028b310"><path d="M 16.96875 16.96875 L 358.03125 16.96875 L 358.03125 358.03125 L 16.96875 358.03125 Z M 16.96875 16.96875 " clip-rule="nonzero"/></clipPath><clipPath id="8ffd4a19bf"><path d="M 187.5 16.96875 C 93.320312 16.96875 16.96875 93.320312 16.96875 187.5 C 16.96875 281.679688 93.320312 358.03125 187.5 358.03125 C 281.679688 358.03125 358.03125 281.679688 358.03125 187.5 C 358.03125 93.320312 281.679688 16.96875 187.5 16.96875 Z M 187.5 16.96875 " clip-rule="nonzero"/></clipPath></defs><g clip-path="url(#ddb028b310)"><g clip-path="url(#8ffd4a19bf)"><path fill="#cb6ce6" d="M 16.96875 16.96875 L 358.03125 16.96875 L 358.03125 358.03125 L 16.96875 358.03125 Z M 16.96875 16.96875 " fill-opacity="1" fill-rule="nonzero"/></g></g><g fill="#ffffff" fill-opacity="1"><g transform="translate(101.908687, 272.871672)"><g><path d="M 95.535156 0 C 212.6875 0.214844 214.203125 -192.15625 97.050781 -192.371094 L 6.484375 -192.371094 C 19.667969 -133.363281 19.667969 -59.007812 6.484375 0 Z M 57.925781 -40.636719 L 57.925781 -101.15625 C 57.925781 -146.546875 76.730469 -185.023438 104.398438 -185.023438 C 106.777344 -185.023438 109.152344 -184.804688 111.53125 -184.15625 C 130.335938 -179.835938 145.035156 -150.652344 138.550781 -95.535156 C 132.066406 -40.636719 100.722656 -7.132812 79.109375 -7.132812 C 67.003906 -7.132812 57.925781 -17.507812 57.925781 -40.636719 Z M 57.925781 -40.636719 "/></g></g></g></svg>