<?xml version="1.0" encoding="UTF-8"?>
<!DOCTYPE svg PUBLIC "-//W3C//DTD SVG 1.1//EN" "http://www.w3.org/Graphics/SVG/1.1/DTD/svg11.dtd">
<svg xmlns="http://www.w3.org/2000/svg" version="1.1" width="128px" height="128px" style="shape-rendering:geometricPrecision; text-rendering:geometricPrecision; image-rendering:optimizeQuality; fill-rule:evenodd; clip-rule:evenodd" xmlns:xlink="http://www.w3.org/1999/xlink">
<g><path style="opacity:0.99" fill="#fbde62" d="M 67.5,-0.5 C 83.8333,-0.5 100.167,-0.5 116.5,-0.5C 122.406,2.10778 123.906,6.44112 121,12.5C 118.827,13.9328 116.66,15.2661 114.5,16.5C 111.339,23.8814 107.672,24.2147 103.5,17.5C 91.4444,16.9391 79.4444,16.1058 67.5,15C 62.2215,9.83607 62.2215,4.6694 67.5,-0.5 Z"/></g>
<g><path style="opacity:1" fill="#feab13" d="M 116.5,-0.5 C 118.833,-0.5 121.167,-0.5 123.5,-0.5C 125.167,0.5 126.5,1.83333 127.5,3.5C 127.5,6.16667 127.5,8.83333 127.5,11.5C 124.251,15.6126 119.918,17.2793 114.5,16.5C 116.66,15.2661 118.827,13.9328 121,12.5C 123.906,6.44112 122.406,2.10778 116.5,-0.5 Z"/></g>
<g><path style="opacity:0.988" fill="#9090fa" d="M 85.5,21.5 C 90.965,22.7883 94.7983,26.1217 97,31.5C 97.169,44.6731 97.669,57.6731 98.5,70.5C 96.0095,71.0904 93.3429,71.257 90.5,71C 89,72.5 87.5,74 86,75.5C 86.0833,78.1194 86.25,80.786 86.5,83.5C 83.0504,82.7564 81.3838,84.0897 81.5,87.5C 68.15,87.1675 54.8167,87.5008 41.5,88.5C 37.5679,93.355 33.4012,98.0217 29,102.5C 24.189,98.02 19.689,93.1867 15.5,88C 8.27406,88.5557 2.94073,85.7224 -0.5,79.5C -0.5,62.8333 -0.5,46.1667 -0.5,29.5C 1.79717,25.7133 5.13051,23.2133 9.5,22C 34.8311,21.5 60.1645,21.3334 85.5,21.5 Z"/></g>
<g><path style="opacity:0.999" fill="#6d61ea" d="M 85.5,21.5 C 93.2976,20.4791 98.7976,23.4791 102,30.5C 102.5,42.4954 102.667,54.4954 102.5,66.5C 99.5,66.1667 98.1667,67.5 98.5,70.5C 97.669,57.6731 97.169,44.6731 97,31.5C 94.7983,26.1217 90.965,22.7883 85.5,21.5 Z"/></g>
<g><path style="opacity:1" fill="#f7f7fe" d="M 26.5,42.5 C 30.1817,42.3347 33.8484,42.5014 37.5,43C 38.3366,44.0113 38.67,45.1779 38.5,46.5C 35.1667,46.5 31.8333,46.5 28.5,46.5C 28.5,48.5 28.5,50.5 28.5,52.5C 31.7766,52.2161 34.9433,52.5495 38,53.5C 38.499,57.8206 38.6657,62.1539 38.5,66.5C 34.1667,66.5 29.8333,66.5 25.5,66.5C 25.5,65.1667 25.5,63.8333 25.5,62.5C 28.5,62.5 31.5,62.5 34.5,62.5C 34.5,60.5 34.5,58.5 34.5,56.5C 31.5,56.5 28.5,56.5 25.5,56.5C 25.2256,51.737 25.559,47.0704 26.5,42.5 Z"/></g>
<g><path style="opacity:1" fill="#f5f4fe" d="M 44.5,42.5 C 48.5138,42.3345 52.5138,42.5012 56.5,43C 57.3366,44.0113 57.67,45.1779 57.5,46.5C 54.1667,46.5 50.8333,46.5 47.5,46.5C 47.5,48.5 47.5,50.5 47.5,52.5C 50.5184,52.3354 53.5184,52.502 56.5,53C 57.3366,54.0113 57.67,55.1779 57.5,56.5C 54.1667,56.5 50.8333,56.5 47.5,56.5C 47.5,58.5 47.5,60.5 47.5,62.5C 50.5184,62.3354 53.5184,62.502 56.5,63C 57.3366,64.0113 57.67,65.1779 57.5,66.5C 52.9014,66.8 48.4014,66.4667 44,65.5C 43.2019,57.754 43.3686,50.0873 44.5,42.5 Z"/></g>
<g><path style="opacity:1" fill="#f7f7fe" d="M 63.5,42.5 C 67.7675,42.203 71.9341,42.5363 76,43.5C 76.8132,51.0799 76.6466,58.5799 75.5,66C 71.2452,66.7961 67.0785,66.6295 63,65.5C 62.2019,57.754 62.3686,50.0873 63.5,42.5 Z"/></g>
<g><path style="opacity:1" fill="#9090fb" d="M 66.5,46.5 C 68.5,46.5 70.5,46.5 72.5,46.5C 72.5,51.8333 72.5,57.1667 72.5,62.5C 70.5,62.5 68.5,62.5 66.5,62.5C 66.5,57.1667 66.5,51.8333 66.5,46.5 Z"/></g>
<g><path style="opacity:0.96" fill="#56778c" d="M 102.5,66.5 C 103.5,66.5 104.5,66.5 105.5,66.5C 105.187,69.2469 105.52,71.9135 106.5,74.5C 110.127,76.5301 113.793,77.5301 117.5,77.5C 117.167,78.1667 116.833,78.8333 116.5,79.5C 117.801,82.4271 118.801,85.4271 119.5,88.5C 120.675,88.281 121.675,88.6143 122.5,89.5C 121.066,90.2298 119.9,91.2298 119,92.5C 118.443,94.6147 117.609,96.6147 116.5,98.5C 118.038,101.79 117.205,102.79 114,101.5C 111.38,102.206 108.88,103.206 106.5,104.5C 105.451,107.08 104.784,109.746 104.5,112.5C 102.5,112.5 100.5,112.5 98.5,112.5C 98.7254,110.284 97.8921,108.617 96,107.5C 94.4006,109.036 92.5672,109.536 90.5,109C 87.93,106.933 85.93,104.433 84.5,101.5C 87.3013,97.7679 86.3013,95.7679 81.5,95.5C 81.5,92.8333 81.5,90.1667 81.5,87.5C 81.3838,84.0897 83.0504,82.7564 86.5,83.5C 86.25,80.786 86.0833,78.1194 86,75.5C 87.5,74 89,72.5 90.5,71C 93.3429,71.257 96.0095,71.0904 98.5,70.5C 98.1667,67.5 99.5,66.1667 102.5,66.5 Z M 104.5,79.5 C 110.143,80.4767 113.477,83.81 114.5,89.5C 112.014,98.4105 106.681,100.744 98.5,96.5C 93.0786,88.1368 95.0786,82.4701 104.5,79.5 Z"/></g>
<g><path style="opacity:1" fill="#425f71" d="M 105.5,66.5 C 107.167,66.5 108.833,66.5 110.5,66.5C 110.284,68.6807 111.117,70.3474 113,71.5C 114.599,69.9644 116.433,69.4644 118.5,70C 120.333,71.8333 122.167,73.6667 124,75.5C 123.845,77.8107 123.845,80.144 124,82.5C 125.011,83.3366 126.178,83.67 127.5,83.5C 127.5,87.5 127.5,91.5 127.5,95.5C 125.284,95.2746 123.617,96.1079 122.5,98C 124.325,99.4659 124.825,101.299 124,103.5C 122.167,105.333 120.333,107.167 118.5,109C 116.433,109.536 114.599,109.036 113,107.5C 111.117,108.653 110.284,110.319 110.5,112.5C 108.5,112.5 106.5,112.5 104.5,112.5C 104.784,109.746 105.451,107.08 106.5,104.5C 108.88,103.206 111.38,102.206 114,101.5C 117.205,102.79 118.038,101.79 116.5,98.5C 117.609,96.6147 118.443,94.6147 119,92.5C 119.9,91.2298 121.066,90.2298 122.5,89.5C 121.675,88.6143 120.675,88.281 119.5,88.5C 118.801,85.4271 117.801,82.4271 116.5,79.5C 116.833,78.8333 117.167,78.1667 117.5,77.5C 113.793,77.5301 110.127,76.5301 106.5,74.5C 105.52,71.9135 105.187,69.2469 105.5,66.5 Z"/></g>
<g><path style="opacity:0.984" fill="#fe6a81" d="M 49.5,110.5 C 57.2909,112.477 59.4576,117.144 56,124.5C 54.5913,125.781 53.0913,126.781 51.5,127.5C 35.5,127.5 19.5,127.5 3.5,127.5C 1.83333,126.5 0.5,125.167 -0.5,123.5C -0.5,120.833 -0.5,118.167 -0.5,115.5C 1.7626,112.691 4.7626,110.858 8.5,110C 12.1667,102.667 15.8333,102.667 19.5,110C 29.4944,110.5 39.4944,110.666 49.5,110.5 Z"/></g>
<g><path style="opacity:1" fill="#ef2c65" d="M 49.5,110.5 C 63.0232,110.564 66.3565,116.23 59.5,127.5C 56.8333,127.5 54.1667,127.5 51.5,127.5C 53.0913,126.781 54.5913,125.781 56,124.5C 59.4576,117.144 57.2909,112.477 49.5,110.5 Z"/></g>
</svg>
