<?xml version="1.0" encoding="UTF-8"?>
<!DOCTYPE svg PUBLIC "-//W3C//DTD SVG 1.1//EN" "http://www.w3.org/Graphics/SVG/1.1/DTD/svg11.dtd">
<svg xmlns="http://www.w3.org/2000/svg" version="1.1" width="128px" height="128px" style="shape-rendering:geometricPrecision; text-rendering:geometricPrecision; image-rendering:optimizeQuality; fill-rule:evenodd; clip-rule:evenodd" xmlns:xlink="http://www.w3.org/1999/xlink">
<g><path style="opacity:1" fill="#6e47be" d="M 6.5,-0.5 C 44.5,-0.5 82.5,-0.5 120.5,-0.5C 121.167,0.166667 121.833,0.833333 122.5,1.5C 121.761,1.36899 121.094,1.53566 120.5,2C 122.25,5.92081 121.25,8.92081 117.5,11C 91.5021,11.5 65.5021,11.6666 39.5,11.5C 37.7085,11.366 36.0418,11.6993 34.5,12.5C 32.5,11.1667 30.5,11.1667 28.5,12.5C 26.9582,11.6993 25.2915,11.366 23.5,11.5C 21.1667,11.5 18.8333,11.5 16.5,11.5C 14.7085,11.366 13.0418,11.6993 11.5,12.5C 6.46442,10.5957 4.79776,7.09575 6.5,2C 5.90558,1.53566 5.23891,1.36899 4.5,1.5C 5.16667,0.833333 5.83333,0.166667 6.5,-0.5 Z"/></g>
<g><path style="opacity:1" fill="#5729b4" d="M 4.5,1.5 C 5.23891,1.36899 5.90558,1.53566 6.5,2C 4.79776,7.09575 6.46442,10.5957 11.5,12.5C 11.5,13.8333 11.5,15.1667 11.5,16.5C 13.1667,16.5 14.8333,16.5 16.5,16.5C 16.5,14.8333 16.5,13.1667 16.5,11.5C 18.8333,11.5 21.1667,11.5 23.5,11.5C 21.9155,16.0793 23.4155,17.4126 28,15.5C 28.4828,14.552 28.6495,13.552 28.5,12.5C 30.5,11.1667 32.5,11.1667 34.5,12.5C 34.7007,16.35 36.5341,17.35 40,15.5C 40.5791,14.0715 40.4124,12.7382 39.5,11.5C 65.5021,11.6666 91.5021,11.5 117.5,11C 121.25,8.92081 122.25,5.92081 120.5,2C 121.094,1.53566 121.761,1.36899 122.5,1.5C 123.239,1.36899 123.906,1.53566 124.5,2C 125.399,3.65161 126.399,5.15161 127.5,6.5C 127.5,13.8333 127.5,21.1667 127.5,28.5C 126.167,28.5 124.833,28.5 123.5,28.5C 122.5,28.5 121.5,28.5 120.5,28.5C 121.752,26.6612 121.752,24.8278 120.5,23C 82.5,22.3333 44.5,22.3333 6.5,23C 5.24751,24.8278 5.24751,26.6612 6.5,28.5C 4.16667,28.5 1.83333,28.5 -0.5,28.5C -0.5,21.1667 -0.5,13.8333 -0.5,6.5C 0.558465,5.39977 1.3918,4.06644 2,2.5C 2.67076,1.74756 3.5041,1.41423 4.5,1.5 Z"/></g>
<g><path style="opacity:1" fill="#eea940" d="M 16.5,11.5 C 16.5,13.1667 16.5,14.8333 16.5,16.5C 14.8333,16.5 13.1667,16.5 11.5,16.5C 11.5,15.1667 11.5,13.8333 11.5,12.5C 13.0418,11.6993 14.7085,11.366 16.5,11.5 Z"/></g>
<g><path style="opacity:1" fill="#ac94da" d="M 23.5,11.5 C 25.2915,11.366 26.9582,11.6993 28.5,12.5C 28.6495,13.552 28.4828,14.552 28,15.5C 23.4155,17.4126 21.9155,16.0793 23.5,11.5 Z"/></g>
<g><path style="opacity:1" fill="#ce1075" d="M 39.5,11.5 C 40.4124,12.7382 40.5791,14.0715 40,15.5C 36.5341,17.35 34.7007,16.35 34.5,12.5C 36.0418,11.6993 37.7085,11.366 39.5,11.5 Z"/></g>
<g><path style="opacity:1" fill="#421199" d="M 120.5,28.5 C 119.5,28.5 118.5,28.5 117.5,28.5C 80.5,28.5 43.5,28.5 6.5,28.5C 5.24751,26.6612 5.24751,24.8278 6.5,23C 44.5,22.3333 82.5,22.3333 120.5,23C 121.752,24.8278 121.752,26.6612 120.5,28.5 Z"/></g>
<g><path style="opacity:1" fill="#ded1f1" d="M -0.5,28.5 C 1.83333,28.5 4.16667,28.5 6.5,28.5C 43.5,28.5 80.5,28.5 117.5,28.5C 116.833,29.1667 116.167,29.8333 115.5,30.5C 111.633,31.6936 107.966,33.3603 104.5,35.5C 70.6691,34.6675 36.6691,34.1675 2.5,34C 1.36362,32.8549 0.363622,31.6883 -0.5,30.5C -0.5,29.8333 -0.5,29.1667 -0.5,28.5 Z"/></g>
<g><path style="opacity:1" fill="#a8076a" d="M 117.5,28.5 C 118.5,28.5 119.5,28.5 120.5,28.5C 121.5,28.5 122.5,28.5 123.5,28.5C 125.167,29.5 126.5,30.8333 127.5,32.5C 127.5,34.5 127.5,36.5 127.5,38.5C 125.264,42.6446 123.264,46.978 121.5,51.5C 119.255,54.3197 117.255,57.3197 115.5,60.5C 109.09,68.2462 101.757,74.9129 93.5,80.5C 90.1499,82.1961 86.8165,83.8627 83.5,85.5C 82.609,86.1098 81.609,86.4431 80.5,86.5C 78.5,84.1667 76.5,81.8333 74.5,79.5C 91.9925,75.1716 104.492,64.8382 112,48.5C 114.124,42.6736 115.291,36.6736 115.5,30.5C 116.167,29.8333 116.833,29.1667 117.5,28.5 Z"/></g>
<g><path style="opacity:1" fill="#e0ccec" d="M 123.5,28.5 C 124.833,28.5 126.167,28.5 127.5,28.5C 127.5,29.8333 127.5,31.1667 127.5,32.5C 126.5,30.8333 125.167,29.5 123.5,28.5 Z"/></g>
<g><path style="opacity:0.993" fill="#eee7f8" d="M -0.5,30.5 C 0.363622,31.6883 1.36362,32.8549 2.5,34C 36.6691,34.1675 70.6691,34.6675 104.5,35.5C 101.833,37.1667 99.1667,38.8333 96.5,40.5C 80.4965,40.3334 64.4965,40.5001 48.5,41C 48,41.5 47.5,42 47,42.5C 46.3333,54.5 46.3333,66.5 47,78.5C 47.5,79 48,79.5 48.5,80C 54.4908,80.4995 60.4908,80.6662 66.5,80.5C 65.5,82.5 64.5,84.5 63.5,86.5C 51.9765,85.4342 42.3099,89.1008 34.5,97.5C 36.8188,82.3269 30.4854,76.8269 15.5,81C 14.0692,81.4652 12.9025,82.2986 12,83.5C 11.3333,89.5 11.3333,95.5 12,101.5C 12.8333,102.333 13.6667,103.167 14.5,104C 19.8229,104.499 25.1563,104.666 30.5,104.5C 29.0807,108.015 28.414,111.681 28.5,115.5C 28.5,116.167 28.1667,116.5 27.5,116.5C 21.1579,116.666 14.8246,116.5 8.5,116C 4.47542,115.127 1.47542,112.961 -0.5,109.5C -0.5,107.167 -0.5,104.833 -0.5,102.5C 1.22964,105.108 3.06297,105.108 5,102.5C 5.66667,86.1667 5.66667,69.8333 5,53.5C 3.1899,50.9824 1.35657,50.9824 -0.5,53.5C -0.5,45.8333 -0.5,38.1667 -0.5,30.5 Z"/></g>
<g><path style="opacity:1" fill="#d71472" d="M 115.5,30.5 C 115.291,36.6736 114.124,42.6736 112,48.5C 104.492,64.8382 91.9925,75.1716 74.5,79.5C 72.8333,78.1667 71.1667,76.8333 69.5,75.5C 75.3673,61.4397 84.3673,49.7731 96.5,40.5C 99.1667,38.8333 101.833,37.1667 104.5,35.5C 107.966,33.3603 111.633,31.6936 115.5,30.5 Z"/></g>
<g><path style="opacity:1" fill="#b39ddd" d="M 13.5,40.5 C 19.5092,40.3338 25.5092,40.5005 31.5,41C 32.3333,41.8333 33.1667,42.6667 34,43.5C 34.6667,48.8333 34.6667,54.1667 34,59.5C 33.6258,60.4162 33.1258,61.2496 32.5,62C 13.7414,68.2435 6.9081,61.7435 12,42.5C 12.7172,41.9558 13.2172,41.2891 13.5,40.5 Z"/></g>
<g><path style="opacity:1" fill="#b39cdc" d="M 96.5,40.5 C 84.3673,49.7731 75.3673,61.4397 69.5,75.5C 68.2632,76.9649 67.2632,78.6316 66.5,80.5C 60.4908,80.6662 54.4908,80.4995 48.5,80C 48,79.5 47.5,79 47,78.5C 46.3333,66.5 46.3333,54.5 47,42.5C 47.5,42 48,41.5 48.5,41C 64.4965,40.5001 80.4965,40.3334 96.5,40.5 Z"/></g>
<g><path style="opacity:1" fill="#dacaef" d="M 127.5,38.5 C 127.5,62.1667 127.5,85.8333 127.5,109.5C 125.525,112.961 122.525,115.127 118.5,116C 106.505,116.5 94.5046,116.667 82.5,116.5C 81.6586,114.621 81.3253,112.621 81.5,110.5C 93.5046,110.667 105.505,110.5 117.5,110C 118.416,109.626 119.25,109.126 120,108.5C 121.475,89.593 121.975,70.593 121.5,51.5C 123.264,46.978 125.264,42.6446 127.5,38.5 Z"/></g>
<g><path style="opacity:1" fill="#e873ad" d="M 97.5,46.5 C 99.5273,46.3379 101.527,46.5045 103.5,47C 104.022,47.5613 104.355,48.228 104.5,49C 100.862,59.9816 93.5285,66.6483 82.5,69C 81.1698,66.1227 81.3364,63.2893 83,60.5C 87.0683,54.9297 91.9017,50.2631 97.5,46.5 Z"/></g>
<g><path style="opacity:1" fill="#dfd2f2" d="M -0.5,102.5 C -0.5,86.1667 -0.5,69.8333 -0.5,53.5C 1.35657,50.9824 3.1899,50.9824 5,53.5C 5.66667,69.8333 5.66667,86.1667 5,102.5C 3.06297,105.108 1.22964,105.108 -0.5,102.5 Z"/></g>
<g><path style="opacity:0.99" fill="#eee7f8" d="M 121.5,51.5 C 121.975,70.593 121.475,89.593 120,108.5C 119.25,109.126 118.416,109.626 117.5,110C 105.505,110.5 93.5046,110.667 81.5,110.5C 81.3253,112.621 81.6586,114.621 82.5,116.5C 76.1667,116.5 69.8333,116.5 63.5,116.5C 66.0601,112.713 68.0601,108.713 69.5,104.5C 72.2776,104.978 74.2776,103.978 75.5,101.5C 74.2776,99.0217 72.2776,98.0217 69.5,98.5C 69.5,96.5 69.5,94.5 69.5,92.5C 71.0495,91.5592 72.7162,90.8925 74.5,90.5C 75.2891,90.7828 75.9558,91.2828 76.5,92C 83.5,92.6667 90.5,92.6667 97.5,92C 98.8602,90.0624 98.5268,88.3957 96.5,87C 91.9805,86.8247 87.6472,86.3247 83.5,85.5C 86.8165,83.8627 90.1499,82.1961 93.5,80.5C 100.175,80.6663 106.842,80.4996 113.5,80C 114,79.5 114.5,79 115,78.5C 115.499,72.5092 115.666,66.5092 115.5,60.5C 117.255,57.3197 119.255,54.3197 121.5,51.5 Z"/></g>
<g><path style="opacity:1" fill="#b39cdc" d="M 115.5,60.5 C 115.666,66.5092 115.499,72.5092 115,78.5C 114.5,79 114,79.5 113.5,80C 106.842,80.4996 100.175,80.6663 93.5,80.5C 101.757,74.9129 109.09,68.2462 115.5,60.5 Z"/></g>
<g><path style="opacity:1" fill="#b6a1de" d="M 12.5,69.5 C 19.5079,69.3337 26.5079,69.5004 33.5,70C 34.8602,71.9376 34.5268,73.6043 32.5,75C 25.8333,75.6667 19.1667,75.6667 12.5,75C 11.2475,73.1722 11.2475,71.3388 12.5,69.5 Z"/></g>
<g><path style="opacity:1" fill="#49159d" d="M 69.5,75.5 C 71.1667,76.8333 72.8333,78.1667 74.5,79.5C 76.5,81.8333 78.5,84.1667 80.5,86.5C 78.5,87.8333 76.5,89.1667 74.5,90.5C 72.7162,90.8925 71.0495,91.5592 69.5,92.5C 67.5,90.8333 65.5,89.1667 63.5,87.5C 63.5,87.1667 63.5,86.8333 63.5,86.5C 64.5,84.5 65.5,82.5 66.5,80.5C 67.2632,78.6316 68.2632,76.9649 69.5,75.5 Z"/></g>
<g><path style="opacity:1" fill="#b49fdd" d="M 34.5,97.5 C 33.4196,99.9962 32.0862,102.33 30.5,104.5C 25.1563,104.666 19.8229,104.499 14.5,104C 13.6667,103.167 12.8333,102.333 12,101.5C 11.3333,95.5 11.3333,89.5 12,83.5C 12.9025,82.2986 14.0692,81.4652 15.5,81C 30.4854,76.8269 36.8188,82.3269 34.5,97.5 Z"/></g>
<g><path style="opacity:1" fill="#f6b23b" d="M 63.5,86.5 C 63.5,86.8333 63.5,87.1667 63.5,87.5C 60.5093,107.512 48.8426,116.846 28.5,115.5C 28.414,111.681 29.0807,108.015 30.5,104.5C 32.0862,102.33 33.4196,99.9962 34.5,97.5C 42.3099,89.1008 51.9765,85.4342 63.5,86.5 Z"/></g>
<g><path style="opacity:1" fill="#b49edd" d="M 83.5,85.5 C 87.6472,86.3247 91.9805,86.8247 96.5,87C 98.5268,88.3957 98.8602,90.0624 97.5,92C 90.5,92.6667 83.5,92.6667 76.5,92C 75.9558,91.2828 75.2891,90.7828 74.5,90.5C 76.5,89.1667 78.5,87.8333 80.5,86.5C 81.609,86.4431 82.609,86.1098 83.5,85.5 Z"/></g>
<g><path style="opacity:1" fill="#b6a1de" d="M 105.5,86.5 C 108.518,86.3354 111.518,86.502 114.5,87C 115.554,88.3876 115.72,89.8876 115,91.5C 111.927,92.6168 108.76,92.7835 105.5,92C 104.248,90.1722 104.248,88.3388 105.5,86.5 Z"/></g>
<g><path style="opacity:1" fill="#f58c08" d="M 63.5,87.5 C 65.5,89.1667 67.5,90.8333 69.5,92.5C 69.5,94.5 69.5,96.5 69.5,98.5C 69.5,100.5 69.5,102.5 69.5,104.5C 68.0601,108.713 66.0601,112.713 63.5,116.5C 59.2161,121.799 53.8828,125.465 47.5,127.5C 37.5,127.5 27.5,127.5 17.5,127.5C 16.5269,125.932 16.3603,124.265 17,122.5C 19.8587,121.827 22.692,120.993 25.5,120C 26.8228,119.184 27.4894,118.017 27.5,116.5C 28.1667,116.5 28.5,116.167 28.5,115.5C 48.8426,116.846 60.5093,107.512 63.5,87.5 Z"/></g>
<g><path style="opacity:1" fill="#fad899" d="M 47.5,92.5 C 48.8333,92.5 50.1667,92.5 51.5,92.5C 50.7368,101.656 45.9035,107.656 37,110.5C 35.2676,110.266 34.4342,109.266 34.5,107.5C 37.075,100.928 41.4083,95.9284 47.5,92.5 Z"/></g>
<g><path style="opacity:1" fill="#b7a2de" d="M 69.5,98.5 C 72.2776,98.0217 74.2776,99.0217 75.5,101.5C 74.2776,103.978 72.2776,104.978 69.5,104.5C 69.5,102.5 69.5,100.5 69.5,98.5 Z"/></g>
<g><path style="opacity:1" fill="#b6a0de" d="M 82.5,98.5 C 85.5184,98.3354 88.5184,98.502 91.5,99C 92.8602,100.938 92.5268,102.604 90.5,104C 87.8333,104.667 85.1667,104.667 82.5,104C 81.2475,102.172 81.2475,100.339 82.5,98.5 Z"/></g>
</svg>
