<?xml version="1.0" encoding="UTF-8"?>
<!DOCTYPE svg PUBLIC "-//W3C//DTD SVG 1.1//EN" "http://www.w3.org/Graphics/SVG/1.1/DTD/svg11.dtd">
<svg xmlns="http://www.w3.org/2000/svg" version="1.1" width="512px" height="512px" style="shape-rendering:geometricPrecision; text-rendering:geometricPrecision; image-rendering:optimizeQuality; fill-rule:evenodd; clip-rule:evenodd" xmlns:xlink="http://www.w3.org/1999/xlink">
<g><path style="opacity:0.984" fill="#020202" d="M 368.5,213.5 C 365.207,212.59 362.707,210.59 361,207.5C 360.667,174.167 360.333,140.833 360,107.5C 356.581,102.077 352.415,97.2436 347.5,93C 331.297,77.2958 314.964,61.7958 298.5,46.5C 297.5,108.095 297.167,170.429 297.5,233.5C 321.339,233.831 345.006,233.498 368.5,232.5C 390.503,232.333 412.503,232.5 434.5,233C 444.201,235.1 450.368,240.933 453,250.5C 453.5,293.832 453.667,337.165 453.5,380.5C 483.357,379.062 502.691,392.395 511.5,420.5C 511.5,442.833 511.5,465.167 511.5,487.5C 508.947,493.88 504.28,498.046 497.5,500C 336.167,500.667 174.833,500.667 13.5,500C 6.71998,498.046 2.05332,493.88 -0.5,487.5C -0.5,468.833 -0.5,450.167 -0.5,431.5C 7.79056,400.886 27.7906,383.886 59.5,380.5C 59.3333,291.499 59.5,202.499 60,113.5C 62.9015,102.263 69.7348,94.4301 80.5,90C 91.4263,86.1909 102.426,82.6909 113.5,79.5C 113.07,61.7858 113.57,44.1191 115,26.5C 123.094,10.7618 135.261,6.59515 151.5,14C 156.578,17.6415 160.078,22.4748 162,28.5C 162.168,39.848 162.668,51.1813 163.5,62.5C 204.389,48.3704 245.389,34.537 286.5,21C 289.167,20.3333 291.833,20.3333 294.5,21C 319.637,44.469 344.47,68.3024 369,92.5C 372.711,97.5903 375.044,103.257 376,109.5C 376.667,142.167 376.667,174.833 376,207.5C 374.516,210.821 372.016,212.821 368.5,213.5 Z"/></g>
<g><path style="opacity:1" fill="#9189c4" d="M 133.5,27.5 C 136.304,26.3622 139.304,26.1955 142.5,27C 144.552,27.9299 146.052,29.4299 147,31.5C 147.833,43.8468 147.666,56.1802 146.5,68.5C 143.273,69.9094 139.94,70.9094 136.5,71.5C 136.667,57.8293 136.5,44.1626 136,30.5C 135.764,28.8807 134.931,27.8807 133.5,27.5 Z"/></g>
<g><path style="opacity:1" fill="#aaa4d4" d="M 133.5,27.5 C 134.931,27.8807 135.764,28.8807 136,30.5C 136.5,44.1626 136.667,57.8293 136.5,71.5C 134.485,72.9238 132.152,73.5905 129.5,73.5C 129.333,59.1628 129.5,44.8295 130,30.5C 131.039,29.2899 132.206,28.2899 133.5,27.5 Z"/></g>
<g><path style="opacity:1" fill="#98e5fa" d="M 281.5,39.5 C 282.496,52.6562 282.829,65.9895 282.5,79.5C 278.155,80.8375 273.822,82.1708 269.5,83.5C 269.5,70.1667 269.5,56.8333 269.5,43.5C 273.216,41.5947 277.216,40.2613 281.5,39.5 Z"/></g>
<g><path style="opacity:1" fill="#56828e" d="M 281.5,39.5 C 281.56,38.9569 281.893,38.6236 282.5,38.5C 283.826,52.3276 283.826,65.9942 282.5,79.5C 282.829,65.9895 282.496,52.6562 281.5,39.5 Z"/></g>
<g><path style="opacity:1" fill="#c6edfc" d="M 269.5,43.5 C 269.5,56.8333 269.5,70.1667 269.5,83.5C 219.968,100.4 170.301,117.233 120.5,134C 114.311,136.766 112.978,141.1 116.5,147C 119.366,148.457 122.366,148.79 125.5,148C 173.007,131.664 220.673,115.831 268.5,100.5C 269.495,112.655 269.829,124.989 269.5,137.5C 219.921,154.416 170.254,171.249 120.5,188C 113.435,191.726 112.768,196.392 118.5,202C 120.833,202.667 123.167,202.667 125.5,202C 173.007,185.664 220.673,169.831 268.5,154.5C 269.495,166.655 269.829,178.989 269.5,191.5C 219.639,208.62 169.639,225.454 119.5,242C 113.347,246.252 113.014,250.919 118.5,256C 120.833,256.667 123.167,256.667 125.5,256C 173.017,239.661 220.684,223.827 268.5,208.5C 269.495,220.655 269.829,232.989 269.5,245.5C 219.628,262.624 169.628,279.457 119.5,296C 113.347,300.252 113.014,304.919 118.5,310C 120.833,310.667 123.167,310.667 125.5,310C 173.017,293.661 220.684,277.827 268.5,262.5C 269.495,274.655 269.829,286.989 269.5,299.5C 240.64,309.62 211.64,319.454 182.5,329C 174.098,332.947 173.431,337.947 180.5,344C 182.167,344.667 183.833,344.667 185.5,344C 213.018,334.327 240.684,325.161 268.5,316.5C 269.499,372.331 269.832,428.331 269.5,484.5C 252.5,484.5 235.5,484.5 218.5,484.5C 218.667,457.498 218.5,430.498 218,403.5C 212.729,391.629 203.896,388.129 191.5,393C 171.269,398.915 150.935,404.582 130.5,410C 122.837,411.665 117.67,416.165 115,423.5C 114.5,443.831 114.333,464.164 114.5,484.5C 101.5,484.5 88.5,484.5 75.5,484.5C 75.5,361.833 75.5,239.167 75.5,116.5C 77.2528,110.246 81.2528,106.079 87.5,104C 148.006,83.3312 208.673,63.1645 269.5,43.5 Z"/></g>
<g><path style="opacity:1" fill="#26a5fc" d="M 298.5,46.5 C 314.964,61.7958 331.297,77.2958 347.5,93C 352.415,97.2436 356.581,102.077 360,107.5C 360.333,140.833 360.667,174.167 361,207.5C 362.707,210.59 365.207,212.59 368.5,213.5C 368.5,219.833 368.5,226.167 368.5,232.5C 361.167,232.5 353.833,232.5 346.5,232.5C 346.667,190.832 346.5,149.165 346,107.5C 344.861,103.888 343.194,100.554 341,97.5C 327.195,84.6961 313.695,71.5294 300.5,58C 299.906,57.5357 299.239,57.369 298.5,57.5C 298.5,53.8333 298.5,50.1667 298.5,46.5 Z"/></g>
<g><path style="opacity:1" fill="#295172" d="M 298.5,46.5 C 298.5,50.1667 298.5,53.8333 298.5,57.5C 298.5,115.833 298.5,174.167 298.5,232.5C 314.5,232.5 330.5,232.5 346.5,232.5C 353.833,232.5 361.167,232.5 368.5,232.5C 345.006,233.498 321.339,233.831 297.5,233.5C 297.167,170.429 297.5,108.095 298.5,46.5 Z"/></g>
<g><path style="opacity:1" fill="#5fb6ff" d="M 298.5,57.5 C 299.239,57.369 299.906,57.5357 300.5,58C 313.695,71.5294 327.195,84.6961 341,97.5C 343.194,100.554 344.861,103.888 346,107.5C 346.5,149.165 346.667,190.832 346.5,232.5C 330.5,232.5 314.5,232.5 298.5,232.5C 298.5,174.167 298.5,115.833 298.5,57.5 Z"/></g>
<g><path style="opacity:1" fill="#93def3" d="M 269.5,137.5 C 269.829,124.989 269.495,112.655 268.5,100.5C 273.216,98.2613 278.216,96.5946 283.5,95.5C 283.5,108.167 283.5,120.833 283.5,133.5C 278.776,134.63 274.109,135.964 269.5,137.5 Z"/></g>
<g><path style="opacity:1" fill="#8eaab4" d="M 75.5,116.5 C 75.5,239.167 75.5,361.833 75.5,484.5C 88.5,484.5 101.5,484.5 114.5,484.5C 101.344,485.496 88.0105,485.829 74.5,485.5C 74.1671,362.332 74.5005,239.332 75.5,116.5 Z"/></g>
<g><path style="opacity:1" fill="#93def3" d="M 269.5,191.5 C 269.829,178.989 269.495,166.655 268.5,154.5C 273.216,152.261 278.216,150.595 283.5,149.5C 283.5,162.167 283.5,174.833 283.5,187.5C 278.776,188.63 274.109,189.964 269.5,191.5 Z"/></g>
<g><path style="opacity:1" fill="#93ddf3" d="M 269.5,245.5 C 269.829,232.989 269.495,220.655 268.5,208.5C 273.14,206.027 278.14,204.36 283.5,203.5C 283.5,216.167 283.5,228.833 283.5,241.5C 278.776,242.63 274.109,243.964 269.5,245.5 Z"/></g>
<g><path style="opacity:1" fill="#f2f9fc" d="M 298.5,248.5 C 339.839,248.167 381.172,248.5 422.5,249.5C 423.098,250.795 423.598,252.128 424,253.5C 424.833,299.504 424.667,345.504 423.5,391.5C 404.245,400.775 395.578,416.108 397.5,437.5C 364.5,437.5 331.5,437.5 298.5,437.5C 298.5,374.5 298.5,311.5 298.5,248.5 Z"/></g>
<g><path style="opacity:1" fill="#d5eaf3" d="M 298.5,248.5 C 342.665,247.335 386.998,247.169 431.5,248C 433.624,249.122 435.457,250.622 437,252.5C 438.656,296.75 438.989,341.083 438,385.5C 416.777,396.596 406.943,414.263 408.5,438.5C 371.663,438.832 334.996,438.498 298.5,437.5C 331.5,437.5 364.5,437.5 397.5,437.5C 395.578,416.108 404.245,400.775 423.5,391.5C 424.667,345.504 424.833,299.504 424,253.5C 423.598,252.128 423.098,250.795 422.5,249.5C 381.172,248.5 339.839,248.167 298.5,248.5 Z"/></g>
<g><path style="opacity:1" fill="#93def3" d="M 269.5,299.5 C 269.829,286.989 269.495,274.655 268.5,262.5C 273.216,260.261 278.216,258.595 283.5,257.5C 283.5,270.167 283.5,282.833 283.5,295.5C 278.776,296.63 274.109,297.964 269.5,299.5 Z"/></g>
<g><path style="opacity:1" fill="#020202" d="M 327.5,266.5 C 355.231,266.026 382.897,266.526 410.5,268C 413.431,270.262 415.597,273.095 417,276.5C 417.667,284.5 417.667,292.5 417,300.5C 415.5,304.667 412.667,307.5 408.5,309C 381.167,309.667 353.833,309.667 326.5,309C 323.829,307.75 321.663,305.917 320,303.5C 318.413,293.908 318.08,284.242 319,274.5C 321.074,270.923 323.907,268.256 327.5,266.5 Z"/></g>
<g><path style="opacity:1" fill="#c7eefd" d="M 388.5,281.5 C 388.5,285.833 388.5,290.167 388.5,294.5C 370.167,294.5 351.833,294.5 333.5,294.5C 333.5,290.167 333.5,285.833 333.5,281.5C 351.833,281.5 370.167,281.5 388.5,281.5 Z"/></g>
<g><path style="opacity:1" fill="#99e6fb" d="M 388.5,281.5 C 392.833,281.5 397.167,281.5 401.5,281.5C 401.5,285.833 401.5,290.167 401.5,294.5C 397.167,294.5 392.833,294.5 388.5,294.5C 388.5,290.167 388.5,285.833 388.5,281.5 Z"/></g>
<g><path style="opacity:1" fill="#4d6269" d="M 401.5,281.5 C 402.486,285.97 402.819,290.637 402.5,295.5C 379.327,295.831 356.327,295.498 333.5,294.5C 351.833,294.5 370.167,294.5 388.5,294.5C 392.833,294.5 397.167,294.5 401.5,294.5C 401.5,290.167 401.5,285.833 401.5,281.5 Z"/></g>
<g><path style="opacity:1" fill="#5a818c" d="M 282.5,311.5 C 283.499,369.331 283.832,427.331 283.5,485.5C 261.66,485.831 239.994,485.497 218.5,484.5C 235.5,484.5 252.5,484.5 269.5,484.5C 273.833,484.5 278.167,484.5 282.5,484.5C 282.5,426.833 282.5,369.167 282.5,311.5 Z"/></g>
<g><path style="opacity:1" fill="#98e5fb" d="M 282.5,311.5 C 282.5,369.167 282.5,426.833 282.5,484.5C 278.167,484.5 273.833,484.5 269.5,484.5C 269.832,428.331 269.499,372.331 268.5,316.5C 272.952,314.459 277.618,312.792 282.5,311.5 Z"/></g>
<g><path style="opacity:1" fill="#020202" d="M 327.5,323.5 C 355.231,323.026 382.897,323.526 410.5,325C 413.431,327.262 415.597,330.095 417,333.5C 417.667,341.5 417.667,349.5 417,357.5C 415.5,361.667 412.667,364.5 408.5,366C 381.167,366.667 353.833,366.667 326.5,366C 323.829,364.75 321.663,362.917 320,360.5C 318.413,350.908 318.08,341.242 319,331.5C 321.074,327.923 323.907,325.256 327.5,323.5 Z"/></g>
<g><path style="opacity:1" fill="#c6edfc" d="M 388.5,338.5 C 388.5,342.833 388.5,347.167 388.5,351.5C 370.167,351.5 351.833,351.5 333.5,351.5C 333.5,347.167 333.5,342.833 333.5,338.5C 351.833,338.5 370.167,338.5 388.5,338.5 Z"/></g>
<g><path style="opacity:1" fill="#98e4fa" d="M 388.5,338.5 C 392.833,338.5 397.167,338.5 401.5,338.5C 401.5,342.833 401.5,347.167 401.5,351.5C 397.167,351.5 392.833,351.5 388.5,351.5C 388.5,347.167 388.5,342.833 388.5,338.5 Z"/></g>
<g><path style="opacity:1" fill="#070809" d="M 146.5,340.5 C 156.855,340.724 159.522,345.224 154.5,354C 144.919,357.527 135.252,360.86 125.5,364C 117.83,365.327 114.33,362.161 115,354.5C 115.465,353.069 116.299,351.903 117.5,351C 127.292,347.572 136.959,344.072 146.5,340.5 Z"/></g>
<g><path style="opacity:1" fill="#4d6269" d="M 401.5,338.5 C 402.486,342.97 402.819,347.637 402.5,352.5C 379.327,352.831 356.327,352.498 333.5,351.5C 351.833,351.5 370.167,351.5 388.5,351.5C 392.833,351.5 397.167,351.5 401.5,351.5C 401.5,347.167 401.5,342.833 401.5,338.5 Z"/></g>
<g><path style="opacity:1" fill="#030404" d="M 326.5,381.5 C 337.505,381.333 348.505,381.5 359.5,382C 362.937,383.105 365.437,385.272 367,388.5C 367.667,397.5 367.667,406.5 367,415.5C 365.969,418.539 364.135,421.039 361.5,423C 350.225,424.576 338.892,424.909 327.5,424C 324.438,422.939 321.938,421.106 320,418.5C 318.413,408.908 318.08,399.242 319,389.5C 320.69,385.979 323.19,383.312 326.5,381.5 Z"/></g>
<g><path style="opacity:1" fill="#a1e42e" d="M 45.5,438.5 C 45.5,425.5 45.5,412.5 45.5,399.5C 49.7259,397.044 54.3925,396.044 59.5,396.5C 59.5,410.5 59.5,424.5 59.5,438.5C 54.8333,438.5 50.1667,438.5 45.5,438.5 Z"/></g>
<g><path style="opacity:1" fill="#a4e8fc" d="M 333.5,396.5 C 339.833,396.5 346.167,396.5 352.5,396.5C 352.5,400.833 352.5,405.167 352.5,409.5C 346.167,409.5 339.833,409.5 333.5,409.5C 333.5,405.167 333.5,400.833 333.5,396.5 Z"/></g>
<g><path style="opacity:1" fill="#baeb6b" d="M 465.5,396.5 C 477.993,407.174 483.66,420.84 482.5,437.5C 463.167,437.5 443.833,437.5 424.5,437.5C 424.5,433.167 424.5,428.833 424.5,424.5C 427.793,410.371 436.46,401.204 450.5,397C 455.489,396.501 460.489,396.334 465.5,396.5 Z"/></g>
<g><path style="opacity:1" fill="#9ee12d" d="M 465.5,396.5 C 481.681,398.678 491.848,407.678 496,423.5C 496.499,428.489 496.666,433.489 496.5,438.5C 491.833,438.5 487.167,438.5 482.5,438.5C 482.5,438.167 482.5,437.833 482.5,437.5C 483.66,420.84 477.993,407.174 465.5,396.5 Z"/></g>
<g><path style="opacity:1" fill="#b8e86a" d="M 45.5,399.5 C 45.5,412.5 45.5,425.5 45.5,438.5C 35.1667,438.5 24.8333,438.5 14.5,438.5C 17.0809,419.261 27.4142,406.261 45.5,399.5 Z"/></g>
<g><path style="opacity:1" fill="#25a5fd" d="M 202.5,406.5 C 202.5,432.5 202.5,458.5 202.5,484.5C 198.167,484.5 193.833,484.5 189.5,484.5C 189.5,459.5 189.5,434.5 189.5,409.5C 193.476,408.171 197.476,406.838 201.5,405.5C 202.107,405.624 202.44,405.957 202.5,406.5 Z"/></g>
<g><path style="opacity:1" fill="#5eb6fe" d="M 189.5,409.5 C 189.5,434.5 189.5,459.5 189.5,484.5C 184.5,484.5 179.5,484.5 174.5,484.5C 174.5,460.833 174.5,437.167 174.5,413.5C 179.372,411.766 184.372,410.433 189.5,409.5 Z"/></g>
<g><path style="opacity:1" fill="#3576ab" d="M 202.5,406.5 C 203.498,432.661 203.831,458.995 203.5,485.5C 193.5,485.5 183.5,485.5 173.5,485.5C 173.169,461.328 173.502,437.328 174.5,413.5C 174.5,437.167 174.5,460.833 174.5,484.5C 179.5,484.5 184.5,484.5 189.5,484.5C 193.833,484.5 198.167,484.5 202.5,484.5C 202.5,458.5 202.5,432.5 202.5,406.5 Z"/></g>
<g><path style="opacity:1" fill="#5fb6fe" d="M 157.5,418.5 C 158.497,440.327 158.831,462.327 158.5,484.5C 148.833,484.5 139.167,484.5 129.5,484.5C 129.333,465.164 129.5,445.83 130,426.5C 138.943,423.139 148.109,420.472 157.5,418.5 Z"/></g>
<g><path style="opacity:1" fill="#23455f" d="M 157.5,418.5 C 157.56,417.957 157.893,417.624 158.5,417.5C 159.5,440.157 159.833,462.824 159.5,485.5C 149.319,485.827 139.319,485.494 129.5,484.5C 139.167,484.5 148.833,484.5 158.5,484.5C 158.831,462.327 158.497,440.327 157.5,418.5 Z"/></g>
<g><path style="opacity:1" fill="#9cc55a" d="M 424.5,424.5 C 424.5,428.833 424.5,433.167 424.5,437.5C 443.833,437.5 463.167,437.5 482.5,437.5C 482.5,437.833 482.5,438.167 482.5,438.5C 462.833,438.5 443.167,438.5 423.5,438.5C 423.181,433.637 423.514,428.97 424.5,424.5 Z"/></g>
<g><path style="opacity:1" fill="#b5c3ce" d="M 45.5,453.5 C 45.5,463.833 45.5,474.167 45.5,484.5C 35.8333,484.5 26.1667,484.5 16.5,484.5C 15.8826,484.389 15.3826,484.056 15,483.5C 14.5002,473.506 14.3335,463.506 14.5,453.5C 24.8333,453.5 35.1667,453.5 45.5,453.5 Z"/></g>
<g><path style="opacity:1" fill="#99a6b3" d="M 45.5,453.5 C 50.1667,453.5 54.8333,453.5 59.5,453.5C 59.5,464.167 59.5,474.833 59.5,485.5C 44.9903,485.829 30.6569,485.496 16.5,484.5C 26.1667,484.5 35.8333,484.5 45.5,484.5C 45.5,474.167 45.5,463.833 45.5,453.5 Z"/></g>
<g><path style="opacity:1" fill="#b5c4ce" d="M 298.5,453.5 C 335.167,453.5 371.833,453.5 408.5,453.5C 408.5,463.833 408.5,474.167 408.5,484.5C 371.833,484.5 335.167,484.5 298.5,484.5C 298.5,474.167 298.5,463.833 298.5,453.5 Z"/></g>
<g><path style="opacity:1" fill="#b5c3ce" d="M 424.5,453.5 C 443.833,453.5 463.167,453.5 482.5,453.5C 482.5,463.833 482.5,474.167 482.5,484.5C 463.167,484.5 443.833,484.5 424.5,484.5C 424.5,474.167 424.5,463.833 424.5,453.5 Z"/></g>
<g><path style="opacity:1" fill="#9eabb9" d="M 482.5,453.5 C 487.167,453.5 491.833,453.5 496.5,453.5C 496.666,463.506 496.5,473.506 496,483.5C 495.329,484.252 494.496,484.586 493.5,484.5C 489.833,484.5 486.167,484.5 482.5,484.5C 482.5,474.167 482.5,463.833 482.5,453.5 Z"/></g>
<g><path style="opacity:1" fill="#5d6569" d="M 298.5,453.5 C 298.5,463.833 298.5,474.167 298.5,484.5C 335.167,484.5 371.833,484.5 408.5,484.5C 371.67,485.498 334.67,485.832 297.5,485.5C 297.172,474.654 297.506,463.987 298.5,453.5 Z"/></g>
<g><path style="opacity:1" fill="#687076" d="M 424.5,453.5 C 424.5,463.833 424.5,474.167 424.5,484.5C 443.833,484.5 463.167,484.5 482.5,484.5C 486.167,484.5 489.833,484.5 493.5,484.5C 470.339,485.498 447.006,485.831 423.5,485.5C 423.172,474.654 423.506,463.987 424.5,453.5 Z"/></g>
</svg>
