<?xml version="1.0" encoding="UTF-8"?>
<!DOCTYPE svg PUBLIC "-//W3C//DTD SVG 1.1//EN" "http://www.w3.org/Graphics/SVG/1.1/DTD/svg11.dtd">
<svg xmlns="http://www.w3.org/2000/svg" version="1.1" width="128px" height="128px" style="shape-rendering:geometricPrecision; text-rendering:geometricPrecision; image-rendering:optimizeQuality; fill-rule:evenodd; clip-rule:evenodd" xmlns:xlink="http://www.w3.org/1999/xlink">
<g><path style="opacity:0.989" fill="#302cbd" d="M 42.5,5.5 C 58.3281,6.33144 74.3281,6.83144 90.5,7C 92.6667,7.83333 94.1667,9.33333 95,11.5C 95.8197,46.2084 95.653,80.875 94.5,115.5C 93.078,116.925 91.4113,117.925 89.5,118.5C 82.1591,118.334 74.8258,118.5 67.5,119C 68.0442,119.717 68.7109,120.217 69.5,120.5C 77.0676,122.723 84.7343,123.056 92.5,121.5C 91.9423,122.79 90.9423,123.623 89.5,124C 71.4093,124.973 53.4093,124.639 35.5,123C 32.8783,120.058 31.3783,116.558 31,112.5C 30.5003,104.841 30.3336,97.1739 30.5,89.5C 30.3334,64.1645 30.5,38.8311 31,13.5C 31.4101,12.0993 31.9101,10.766 32.5,9.5C 35.1918,6.81928 38.5252,5.48595 42.5,5.5 Z"/></g>
<g><path style="opacity:1" fill="#6681fb" d="M 93.5,18.5 C 93.1667,18.5 92.8333,18.5 92.5,18.5C 73.1667,18.5 53.8333,18.5 34.5,18.5C 34.1667,18.5 33.8333,18.5 33.5,18.5C 32.7046,14.406 34.038,11.2393 37.5,9C 54.5,8.33333 71.5,8.33333 88.5,9C 92.8751,10.7006 94.5418,13.8672 93.5,18.5 Z"/></g>
<g><path style="opacity:1" fill="#acbbff" d="M 58.5,11.5 C 61.8333,11.5 65.1667,11.5 68.5,11.5C 68.5,12.5 68.5,13.5 68.5,14.5C 65.1667,14.5 61.8333,14.5 58.5,14.5C 58.5,13.5 58.5,12.5 58.5,11.5 Z"/></g>
<g><path style="opacity:1" fill="#d3d3f2" d="M 33.5,18.5 C 33.8333,18.5 34.1667,18.5 34.5,18.5C 34.5,47.8333 34.5,77.1667 34.5,106.5C 36.1667,106.5 37.8333,106.5 39.5,106.5C 39.5,106.833 39.5,107.167 39.5,107.5C 37.5,107.5 35.5,107.5 33.5,107.5C 33.5,77.8333 33.5,48.1667 33.5,18.5 Z"/></g>
<g><path style="opacity:1" fill="#fdfdfe" d="M 34.5,18.5 C 53.8333,18.5 73.1667,18.5 92.5,18.5C 92.5,47.8333 92.5,77.1667 92.5,106.5C 90.8333,106.5 89.1667,106.5 87.5,106.5C 87.7935,102.563 87.4601,98.73 86.5,95C 76.8391,94.5002 67.1724,94.3335 57.5,94.5C 51.8236,94.3339 46.1569,94.5006 40.5,95C 39.5399,98.73 39.2065,102.563 39.5,106.5C 37.8333,106.5 36.1667,106.5 34.5,106.5C 34.5,77.1667 34.5,47.8333 34.5,18.5 Z"/></g>
<g><path style="opacity:1" fill="#d3d3f2" d="M 92.5,18.5 C 92.8333,18.5 93.1667,18.5 93.5,18.5C 93.5,48.1667 93.5,77.8333 93.5,107.5C 91.5,107.5 89.5,107.5 87.5,107.5C 87.5,107.167 87.5,106.833 87.5,106.5C 89.1667,106.5 90.8333,106.5 92.5,106.5C 92.5,77.1667 92.5,47.8333 92.5,18.5 Z"/></g>
<g><path style="opacity:1" fill="#a5b3fd" d="M 87.5,31.5 C 78.1192,25.7726 69.1192,26.2726 60.5,33C 61.7375,33.2321 62.7375,33.7321 63.5,34.5C 57.1318,34.1703 50.7985,34.5037 44.5,35.5C 48.7828,36.4922 53.1161,36.8256 57.5,36.5C 57.3893,37.1174 57.056,37.6174 56.5,38C 59.0356,38.1862 61.369,38.6862 63.5,39.5C 57.1318,39.1703 50.7985,39.5037 44.5,40.5C 48.1073,41.4892 51.774,41.8226 55.5,41.5C 54.701,44.4299 54.3677,47.4299 54.5,50.5C 49.57,50.8025 44.7367,50.4692 40,49.5C 39.1851,41.2543 39.3517,33.0876 40.5,25C 55.8333,24.3333 71.1667,24.3333 86.5,25C 87.4231,27.0408 87.7564,29.2075 87.5,31.5 Z"/></g>
<g><path style="opacity:1" fill="#8399fe" d="M 87.5,31.5 C 87.8097,37.7576 87.4764,43.9242 86.5,50C 75.8385,50.4998 65.1719,50.6665 54.5,50.5C 54.3677,47.4299 54.701,44.4299 55.5,41.5C 58.6981,42.0356 61.3647,41.369 63.5,39.5C 61.369,38.6862 59.0356,38.1862 56.5,38C 57.056,37.6174 57.3893,37.1174 57.5,36.5C 60.0821,36.9746 62.0821,36.3079 63.5,34.5C 62.7375,33.7321 61.7375,33.2321 60.5,33C 69.1192,26.2726 78.1192,25.7726 87.5,31.5 Z"/></g>
<g><path style="opacity:0.157" fill="#fedaec" d="M 32.5,9.5 C 31.9101,10.766 31.4101,12.0993 31,13.5C 30.5,38.8311 30.3334,64.1645 30.5,89.5C 27.5,89.5 24.5,89.5 21.5,89.5C 20.9895,86.9828 19.6562,84.9828 17.5,83.5C 16.265,84.3398 15.265,85.3398 14.5,86.5C 7.77423,81.4311 3.44089,74.7644 1.5,66.5C 1.5,57.5 1.5,48.5 1.5,39.5C 6.76276,24.35 17.0961,14.35 32.5,9.5 Z"/></g>
<g><path style="opacity:0.991" fill="#2deaab" d="M 18.5,22.5 C 25.5208,24.172 26.0208,26.8387 20,30.5C 18.6693,29.0042 17.1693,27.6709 15.5,26.5C 16.8262,25.3578 17.8262,24.0245 18.5,22.5 Z"/></g>
<g><path style="opacity:0.759" fill="#ff5ba7" d="M 100.5,38.5 C 100.5,37.8333 100.5,37.1667 100.5,36.5C 101.338,36.1583 101.672,35.4916 101.5,34.5C 107.246,32.4683 109.413,34.4683 108,40.5C 104.777,42.1603 102.277,41.4936 100.5,38.5 Z"/></g>
<g><path style="opacity:1" fill="#fcfcff" d="M 63.5,34.5 C 62.0821,36.3079 60.0821,36.9746 57.5,36.5C 53.1161,36.8256 48.7828,36.4922 44.5,35.5C 50.7985,34.5037 57.1318,34.1703 63.5,34.5 Z"/></g>
<g><path style="opacity:0.008" fill="#fefffe" d="M 1.5,39.5 C 1.5,48.5 1.5,57.5 1.5,66.5C 0.833333,64.5 0.166667,62.5 -0.5,60.5C -0.5,55.8333 -0.5,51.1667 -0.5,46.5C 0.166667,44.1667 0.833333,41.8333 1.5,39.5 Z"/></g>
<g><path style="opacity:1" fill="#fbfcfe" d="M 63.5,39.5 C 61.3647,41.369 58.6981,42.0356 55.5,41.5C 51.774,41.8226 48.1073,41.4892 44.5,40.5C 50.7985,39.5037 57.1318,39.1703 63.5,39.5 Z"/></g>
<g><path style="opacity:0.866" fill="#6e89fd" d="M 109.5,52.5 C 104.677,52.6728 102.677,50.3394 103.5,45.5C 110.669,43.6615 112.669,45.9949 109.5,52.5 Z"/></g>
<g><path style="opacity:0.832" fill="#fad7ec" d="M 101.5,34.5 C 100.662,34.8417 100.328,35.5084 100.5,36.5C 100.5,37.1667 100.5,37.8333 100.5,38.5C 100.707,41.2406 101.707,43.5739 103.5,45.5C 102.677,50.3394 104.677,52.6728 109.5,52.5C 117.884,59.2022 123.884,67.5355 127.5,77.5C 127.5,82.8333 127.5,88.1667 127.5,93.5C 123.884,102.292 117.884,109.125 109.5,114C 104.261,116.787 98.9276,119.287 93.5,121.5C 93.8333,119.5 94.1667,117.5 94.5,115.5C 95.653,80.875 95.8197,46.2084 95,11.5C 94.1667,9.33333 92.6667,7.83333 90.5,7C 74.3281,6.83144 58.3281,6.33144 42.5,5.5C 59.2164,1.37396 75.883,1.54063 92.5,6C 106.657,11.9714 109.657,21.4714 101.5,34.5 Z"/></g>
<g><path style="opacity:1" fill="#ff7fb8" d="M 39.5,56.5 C 46.8333,56.5 54.1667,56.5 61.5,56.5C 61.5,60.5 61.5,64.5 61.5,68.5C 54.1667,68.5 46.8333,68.5 39.5,68.5C 39.5,64.5 39.5,60.5 39.5,56.5 Z"/></g>
<g><path style="opacity:1" fill="#28ffb6" d="M 65.5,56.5 C 72.8333,56.5 80.1667,56.5 87.5,56.5C 87.797,60.7675 87.4637,64.9341 86.5,69C 79.5079,69.4996 72.5079,69.6663 65.5,69.5C 65.5,65.1667 65.5,60.8333 65.5,56.5 Z"/></g>
<g><path style="opacity:1" fill="#889dfe" d="M 40.5,71.5 C 47.5,71.5 54.5,71.5 61.5,71.5C 61.5,75.8333 61.5,80.1667 61.5,84.5C 54.4921,84.6663 47.4921,84.4996 40.5,84C 39.1968,79.834 39.1968,75.6674 40.5,71.5 Z"/></g>
<g><path style="opacity:1" fill="#ffc6e0" d="M 65.5,71.5 C 72.5079,71.3337 79.5079,71.5004 86.5,72C 87.8333,76 87.8333,80 86.5,84C 79.5079,84.4996 72.5079,84.6663 65.5,84.5C 65.5,80.1667 65.5,75.8333 65.5,71.5 Z"/></g>
<g><path style="opacity:0.895" fill="#ff5ea9" d="M 21.5,89.5 C 19.9755,90.1738 18.6422,91.1738 17.5,92.5C 16.0154,91.1793 14.6821,89.6793 13.5,88C 13.5699,87.2352 13.9033,86.7352 14.5,86.5C 15.265,85.3398 16.265,84.3398 17.5,83.5C 19.6562,84.9828 20.9895,86.9828 21.5,89.5 Z"/></g>
<g><path style="opacity:1" fill="#94a6fe" d="M 39.5,89.5 C 43.8839,89.1744 48.2172,89.5078 52.5,90.5C 52.2907,91.086 51.9574,91.586 51.5,92C 47.8333,92.6667 44.1667,92.6667 40.5,92C 39.7476,91.3292 39.4142,90.4959 39.5,89.5 Z"/></g>
<g><path style="opacity:0.747" fill="#03eda7" d="M 19.5,95.5 C 26.3989,97.1889 27.0655,100.189 21.5,104.5C 20.0083,102.844 18.3416,101.344 16.5,100C 18.1412,98.871 19.1412,97.371 19.5,95.5 Z"/></g>
<g><path style="opacity:1" fill="#8dfbd1" d="M 57.5,94.5 C 59.6158,97.9839 59.9491,101.651 58.5,105.5C 68.1437,106.498 77.8104,106.832 87.5,106.5C 87.5,106.833 87.5,107.167 87.5,107.5C 71.5,107.5 55.5,107.5 39.5,107.5C 39.5,107.167 39.5,106.833 39.5,106.5C 39.2065,102.563 39.5399,98.73 40.5,95C 46.1569,94.5006 51.8236,94.3339 57.5,94.5 Z"/></g>
<g><path style="opacity:1" fill="#06fcb1" d="M 57.5,94.5 C 67.1724,94.3335 76.8391,94.5002 86.5,95C 87.4601,98.73 87.7935,102.563 87.5,106.5C 77.8104,106.832 68.1437,106.498 58.5,105.5C 59.9491,101.651 59.6158,97.9839 57.5,94.5 Z"/></g>
<g><path style="opacity:1" fill="#6482fd" d="M 33.5,107.5 C 35.5,107.5 37.5,107.5 39.5,107.5C 55.5,107.5 71.5,107.5 87.5,107.5C 89.5,107.5 91.5,107.5 93.5,107.5C 94.1546,111.355 92.8212,114.188 89.5,116C 72.1667,116.667 54.8333,116.667 37.5,116C 34.1788,114.188 32.8454,111.355 33.5,107.5 Z"/></g>
<g><path style="opacity:0.859" fill="#6e61cc" d="M 89.5,118.5 C 82.8333,119.167 76.1667,119.833 69.5,120.5C 68.7109,120.217 68.0442,119.717 67.5,119C 74.8258,118.5 82.1591,118.334 89.5,118.5 Z"/></g>
<g><path style="opacity:0.648" fill="#d7bae3" d="M 94.5,115.5 C 94.1667,117.5 93.8333,119.5 93.5,121.5C 93.1667,121.5 92.8333,121.5 92.5,121.5C 84.7343,123.056 77.0676,122.723 69.5,120.5C 76.1667,119.833 82.8333,119.167 89.5,118.5C 91.4113,117.925 93.078,116.925 94.5,115.5 Z"/></g>
</svg>
