<?xml version="1.0" encoding="UTF-8"?>
<!DOCTYPE svg PUBLIC "-//W3C//DTD SVG 1.1//EN" "http://www.w3.org/Graphics/SVG/1.1/DTD/svg11.dtd">
<svg xmlns="http://www.w3.org/2000/svg" version="1.1" width="128px" height="128px" style="shape-rendering:geometricPrecision; text-rendering:geometricPrecision; image-rendering:optimizeQuality; fill-rule:evenodd; clip-rule:evenodd" xmlns:xlink="http://www.w3.org/1999/xlink">
<g><path style="opacity:0.945" fill="#225c76" d="M 117.5,89.5 C 81.5,89.5 45.5,89.5 9.5,89.5C 9.17567,62.7888 9.50901,36.1222 10.5,9.5C 11.0253,8.80762 11.6919,8.30762 12.5,8C 46.5,7.33333 80.5,7.33333 114.5,8C 115.308,8.30762 115.975,8.80762 116.5,9.5C 117.491,36.1222 117.824,62.7888 117.5,89.5 Z"/></g>
<g><path style="opacity:1" fill="#144659" d="M 19.5,16.5 C 48.8352,16.3334 78.1686,16.5 107.5,17C 108.66,37.7603 108.826,58.5937 108,79.5C 78.5719,80.6617 49.0719,80.8284 19.5,80C 18.172,58.8334 18.172,37.6667 19.5,16.5 Z"/></g>
<g><path style="opacity:1" fill="#f1f4f5" d="M 29.5,25.5 C 30.8333,25.5 32.1667,25.5 33.5,25.5C 33.415,27.9288 32.415,29.9288 30.5,31.5C 32.415,33.0712 33.415,35.0712 33.5,37.5C 24.7562,35.8452 23.4229,31.8452 29.5,25.5 Z"/></g>
<g><path style="opacity:1" fill="#ebeff1" d="M 42.5,25.5 C 43.8333,25.5 45.1667,25.5 46.5,25.5C 45.6087,30.2888 43.4421,34.2888 40,37.5C 38.7202,37.3865 37.8869,36.7199 37.5,35.5C 39.1799,32.1401 40.8466,28.8068 42.5,25.5 Z"/></g>
<g><path style="opacity:1" fill="#eef2f3" d="M 51.5,25.5 C 60.0675,27.794 61.0675,31.6273 54.5,37C 53.2068,37.49 51.8734,37.6567 50.5,37.5C 50.585,35.0712 51.585,33.0712 53.5,31.5C 52.5,30.1667 51.5,28.8333 50.5,27.5C 50.8627,26.8165 51.1961,26.1499 51.5,25.5 Z"/></g>
<g><path style="opacity:1" fill="#ddb734" d="M 27.5,42.5 C 30.8333,42.5 34.1667,42.5 37.5,42.5C 37.5,43.8333 37.5,45.1667 37.5,46.5C 34.4816,46.6646 31.4816,46.498 28.5,46C 27.6634,44.9887 27.33,43.8221 27.5,42.5 Z"/></g>
<g><path style="opacity:1" fill="#e66273" d="M 42.5,42.5 C 49.175,42.3337 55.8417,42.5004 62.5,43C 63.8333,44 63.8333,45 62.5,46C 56.1667,46.6667 49.8333,46.6667 43.5,46C 42.6634,44.9887 42.33,43.8221 42.5,42.5 Z"/></g>
<g><path style="opacity:1" fill="#c9ab39" d="M 32.5,50.5 C 38.8421,50.3338 45.1754,50.5005 51.5,51C 52.8333,52.3333 52.8333,53.6667 51.5,55C 45.1667,55.6667 38.8333,55.6667 32.5,55C 31.2721,53.5098 31.2721,52.0098 32.5,50.5 Z"/></g>
<g><path style="opacity:1" fill="#e0b834" d="M 31.5,59.5 C 36.1785,59.3342 40.8452,59.5008 45.5,60C 46.8333,61 46.8333,62 45.5,63C 41.1667,63.6667 36.8333,63.6667 32.5,63C 31.6634,61.9887 31.33,60.8221 31.5,59.5 Z"/></g>
<g><path style="opacity:1" fill="#e86273" d="M 51.5,59.5 C 60.8393,59.3335 70.1726,59.5002 79.5,60C 80.8333,61 80.8333,62 79.5,63C 70.1667,63.6667 60.8333,63.6667 51.5,63C 50.3157,61.8545 50.3157,60.6879 51.5,59.5 Z"/></g>
<g><path style="opacity:1" fill="#7ce4f7" d="M 85.5,59.5 C 88.8333,59.5 92.1667,59.5 95.5,59.5C 95.4274,62.9496 93.5941,64.283 90,63.5C 85.8986,64.3385 84.3986,63.0052 85.5,59.5 Z"/></g>
<g><path style="opacity:1" fill="#c8aa3a" d="M 32.5,67.5 C 34.8333,67.5 37.1667,67.5 39.5,67.5C 40.2447,70.9304 38.9114,72.597 35.5,72.5C 31.7117,72.4562 30.7117,70.7895 32.5,67.5 Z"/></g>
<g><path style="opacity:1" fill="#dd6172" d="M 45.5,67.5 C 51.1764,67.3339 56.8431,67.5006 62.5,68C 63.3366,69.0113 63.67,70.1779 63.5,71.5C 57.1667,71.5 50.8333,71.5 44.5,71.5C 44.4326,70.0413 44.7659,68.7079 45.5,67.5 Z"/></g>
<g><path style="opacity:1" fill="#72d4e8" d="M 68.5,67.5 C 77.1731,67.3336 85.8397,67.5002 94.5,68C 95.8333,69.3333 95.8333,70.6667 94.5,72C 85.8333,72.6667 77.1667,72.6667 68.5,72C 67.2721,70.5098 67.2721,69.0098 68.5,67.5 Z"/></g>
<g><path style="opacity:0.996" fill="#c9dbea" d="M 9.5,89.5 C 45.5,89.5 81.5,89.5 117.5,89.5C 120.561,96.3509 123.228,103.351 125.5,110.5C 112.5,110.5 99.5,110.5 86.5,110.5C 85.6629,106.824 84.3296,103.324 82.5,100C 69.8333,99.3333 57.1667,99.3333 44.5,100C 42.6704,103.324 41.3371,106.824 40.5,110.5C 27.5,110.5 14.5,110.5 1.5,110.5C 3.77199,103.351 6.43865,96.3509 9.5,89.5 Z"/></g>
<g><path style="opacity:1" fill="#e0e9f3" d="M 86.5,110.5 C 71.1667,110.5 55.8333,110.5 40.5,110.5C 41.3371,106.824 42.6704,103.324 44.5,100C 57.1667,99.3333 69.8333,99.3333 82.5,100C 84.3296,103.324 85.6629,106.824 86.5,110.5 Z"/></g>
<g><path style="opacity:1" fill="#acbccd" d="M 1.5,110.5 C 14.5,110.5 27.5,110.5 40.5,110.5C 55.8333,110.5 71.1667,110.5 86.5,110.5C 99.5,110.5 112.5,110.5 125.5,110.5C 125.777,113.448 125.444,116.281 124.5,119C 83.8333,119.667 43.1667,119.667 2.5,119C 1.55621,116.281 1.22288,113.448 1.5,110.5 Z"/></g>
</svg>
