<?xml version="1.0" encoding="UTF-8"?>
<!DOCTYPE svg PUBLIC "-//W3C//DTD SVG 1.1//EN" "http://www.w3.org/Graphics/SVG/1.1/DTD/svg11.dtd">
<svg xmlns="http://www.w3.org/2000/svg" version="1.1" width="512px" height="512px" style="shape-rendering:geometricPrecision; text-rendering:geometricPrecision; image-rendering:optimizeQuality; fill-rule:evenodd; clip-rule:evenodd" xmlns:xlink="http://www.w3.org/1999/xlink">
<g><path style="opacity:0.993" fill="#c6805d" d="M 296.5,-0.5 C 299.5,-0.5 302.5,-0.5 305.5,-0.5C 309.003,1.75261 312.67,3.75261 316.5,5.5C 319.833,7.83333 323.167,10.1667 326.5,12.5C 316.91,33.4286 307.41,54.4286 298,75.5C 287.083,97.3655 269.583,110.032 245.5,113.5C 224.831,113.333 204.164,113.5 183.5,114C 174.427,116.739 168.26,122.573 165,131.5C 164.667,146.167 164.333,160.833 164,175.5C 160.064,184.542 153.231,189.209 143.5,189.5C 139.6,188.57 135.6,188.237 131.5,188.5C 130.833,188.5 130.5,188.167 130.5,187.5C 130.333,160.831 130.5,134.165 131,107.5C 135.681,76.2752 153.181,56.4419 183.5,48C 193.181,47.0779 202.848,46.0779 212.5,45C 225.706,41.4025 236.039,33.9025 243.5,22.5C 247.15,21.2722 250.816,21.2722 254.5,22.5C 259.839,30.4962 265.672,38.1629 272,45.5C 275.847,37.8068 279.68,30.1401 283.5,22.5C 287.26,17.3163 290.26,11.6496 292.5,5.5C 293.415,3.24595 294.748,1.24595 296.5,-0.5 Z M 254.5,22.5 C 264.167,22.5 273.833,22.5 283.5,22.5C 279.68,30.1401 275.847,37.8068 272,45.5C 265.672,38.1629 259.839,30.4962 254.5,22.5 Z"/></g>
<g><path style="opacity:0.968" fill="#b8b2b7" d="M 292.5,5.5 C 290.26,11.6496 287.26,17.3163 283.5,22.5C 273.833,22.5 264.167,22.5 254.5,22.5C 250.816,21.2722 247.15,21.2722 243.5,22.5C 226.497,22.3334 209.497,22.5001 192.5,23C 157.935,26.2521 132.435,43.0854 116,73.5C 112.331,81.5081 109.664,89.8414 108,98.5C 106.568,130.807 106.068,163.14 106.5,195.5C 103.713,196.477 100.713,196.81 97.5,196.5C 94.5794,196.283 91.9128,196.949 89.5,198.5C 89.3334,165.832 89.5,133.165 90,100.5C 98.5016,49.9983 127.668,18.8316 177.5,7C 215.803,5.54342 254.136,5.04342 292.5,5.5 Z"/></g>
<g><path style="opacity:0.964" fill="#b8b2b8" d="M 316.5,5.5 C 362.475,8.39181 394.975,30.7251 414,72.5C 417.589,81.5216 419.922,90.8549 421,100.5C 421.5,133.165 421.667,165.832 421.5,198.5C 418.888,197.629 416.221,196.963 413.5,196.5C 410.287,196.81 407.287,196.477 404.5,195.5C 404.667,166.165 404.5,136.831 404,107.5C 400.332,73.0348 383.165,48.0348 352.5,32.5C 352.5,31.8333 352.167,31.5 351.5,31.5C 346.823,28.1445 342.489,24.3111 338.5,20C 334.612,17.2279 330.612,14.7279 326.5,12.5C 323.167,10.1667 319.833,7.83333 316.5,5.5 Z"/></g>
<g><path style="opacity:0.998" fill="#d38c64" d="M 326.5,12.5 C 330.612,14.7279 334.612,17.2279 338.5,20C 342.489,24.3111 346.823,28.1445 351.5,31.5C 352.167,31.5 352.5,31.8333 352.5,32.5C 368.725,50.2964 377.892,71.2964 380,95.5C 380.5,126.165 380.667,156.832 380.5,187.5C 380.5,188.167 380.167,188.5 379.5,188.5C 375.4,188.237 371.4,188.57 367.5,189.5C 357.806,189.222 350.972,184.555 347,175.5C 346.667,160.833 346.333,146.167 346,131.5C 342.302,121.298 335.136,115.298 324.5,113.5C 331.81,99.3228 338.977,84.9894 346,70.5C 347.773,63.6975 345.273,59.6975 338.5,58.5C 335.889,58.5559 333.722,59.5559 332,61.5C 326.061,73.0443 320.394,84.711 315,96.5C 311.248,102.069 307.748,107.736 304.5,113.5C 284.833,113.5 265.167,113.5 245.5,113.5C 269.583,110.032 287.083,97.3655 298,75.5C 307.41,54.4286 316.91,33.4286 326.5,12.5 Z"/></g>
<g><path style="opacity:1" fill="#c6805d" d="M 324.5,113.5 C 320.833,113.5 317.167,113.5 313.5,113.5C 310.5,113.5 307.5,113.5 304.5,113.5C 307.748,107.736 311.248,102.069 315,96.5C 320.394,84.711 326.061,73.0443 332,61.5C 333.722,59.5559 335.889,58.5559 338.5,58.5C 345.273,59.6975 347.773,63.6975 346,70.5C 338.977,84.9894 331.81,99.3228 324.5,113.5 Z"/></g>
<g><path style="opacity:0.996" fill="#fed08c" d="M 245.5,113.5 C 265.167,113.5 284.833,113.5 304.5,113.5C 307.5,113.5 310.5,113.5 313.5,113.5C 312.652,122.185 307.985,127.685 299.5,130C 263.833,130.333 228.167,130.667 192.5,131C 186.279,132.923 182.446,137.09 181,143.5C 180.333,177.833 180.333,212.167 181,246.5C 183.63,272.415 193.796,294.749 211.5,313.5C 205.217,312.416 198.884,312.249 192.5,313C 189.333,314.689 186.333,316.522 183.5,318.5C 164.849,302.202 153.183,281.868 148.5,257.5C 148.5,256.5 148.5,255.5 148.5,254.5C 147.713,233.857 147.213,213.19 147,192.5C 145.961,191.29 144.794,190.29 143.5,189.5C 153.231,189.209 160.064,184.542 164,175.5C 164.333,160.833 164.667,146.167 165,131.5C 168.26,122.573 174.427,116.739 183.5,114C 204.164,113.5 224.831,113.333 245.5,113.5 Z"/></g>
<g><path style="opacity:0.999" fill="#fedf9b" d="M 313.5,113.5 C 317.167,113.5 320.833,113.5 324.5,113.5C 335.136,115.298 342.302,121.298 346,131.5C 346.333,146.167 346.667,160.833 347,175.5C 350.972,184.555 357.806,189.222 367.5,189.5C 366.206,190.29 365.039,191.29 364,192.5C 363.74,214.179 363.24,235.846 362.5,257.5C 355.999,287.837 339.999,311.837 314.5,329.5C 300.705,336.876 286.039,341.876 270.5,344.5C 252.615,340.726 236.282,333.393 221.5,322.5C 219.465,318.135 216.131,315.135 211.5,313.5C 193.796,294.749 183.63,272.415 181,246.5C 180.333,212.167 180.333,177.833 181,143.5C 182.446,137.09 186.279,132.923 192.5,131C 228.167,130.667 263.833,130.333 299.5,130C 307.985,127.685 312.652,122.185 313.5,113.5 Z"/></g>
<g><path style="opacity:1" fill="#c7825e" d="M 195.5,179.5 C 202.508,179.334 209.508,179.5 216.5,180C 224.5,185.333 224.5,190.667 216.5,196C 209.167,196.667 201.833,196.667 194.5,196C 189.931,193.459 188.431,189.625 190,184.5C 191.73,182.598 193.563,180.931 195.5,179.5 Z"/></g>
<g><path style="opacity:1" fill="#d58e65" d="M 294.5,179.5 C 301.508,179.334 308.508,179.5 315.5,180C 320.924,182.017 322.758,185.85 321,191.5C 320.065,194.102 318.232,195.602 315.5,196C 308.167,196.667 300.833,196.667 293.5,196C 286.671,190.003 287.004,184.503 294.5,179.5 Z"/></g>
<g><path style="opacity:0.981" fill="#4e3d4d" d="M 130.5,187.5 C 130.5,188.167 130.833,188.5 131.5,188.5C 131.333,206.503 131.5,224.503 132,242.5C 134.763,250.295 140.263,254.295 148.5,254.5C 148.5,255.5 148.5,256.5 148.5,257.5C 149.472,263.448 147.472,267.948 142.5,271C 134.833,271.667 127.167,271.667 119.5,271C 118.016,270.338 116.683,269.504 115.5,268.5C 114.85,266.565 114.517,264.565 114.5,262.5C 114.5,240.167 114.5,217.833 114.5,195.5C 114.549,192.901 115.549,190.734 117.5,189C 121.73,187.71 126.064,187.21 130.5,187.5 Z"/></g>
<g><path style="opacity:0.997" fill="#61525f" d="M 131.5,188.5 C 135.6,188.237 139.6,188.57 143.5,189.5C 144.794,190.29 145.961,191.29 147,192.5C 147.213,213.19 147.713,233.857 148.5,254.5C 140.263,254.295 134.763,250.295 132,242.5C 131.5,224.503 131.333,206.503 131.5,188.5 Z"/></g>
<g><path style="opacity:0.983" fill="#4e3d4d" d="M 379.5,188.5 C 379.333,205.837 379.5,223.17 380,240.5C 382.315,248.985 387.815,253.652 396.5,254.5C 396.5,257.5 396.5,260.5 396.5,263.5C 396.456,267.09 394.789,269.59 391.5,271C 383.833,271.667 376.167,271.667 368.5,271C 363.528,267.948 361.528,263.448 362.5,257.5C 363.24,235.846 363.74,214.179 364,192.5C 365.039,191.29 366.206,190.29 367.5,189.5C 371.4,188.57 375.4,188.237 379.5,188.5 Z"/></g>
<g><path style="opacity:0.998" fill="#605160" d="M 380.5,187.5 C 384.936,187.21 389.27,187.71 393.5,189C 395.451,190.734 396.451,192.901 396.5,195.5C 396.5,215.167 396.5,234.833 396.5,254.5C 387.815,253.652 382.315,248.985 380,240.5C 379.5,223.17 379.333,205.837 379.5,188.5C 380.167,188.5 380.5,188.167 380.5,187.5 Z"/></g>
<g><path style="opacity:0.952" fill="#91cbfe" d="M 97.5,196.5 C 97.9458,210.24 97.4458,223.907 96,237.5C 92.426,243.205 87.2593,246.205 80.5,246.5C 80.3335,234.495 80.5001,222.495 81,210.5C 81.6558,204.822 84.4891,200.822 89.5,198.5C 91.9128,196.949 94.5794,196.283 97.5,196.5 Z"/></g>
<g><path style="opacity:0.996" fill="#77b3ec" d="M 106.5,195.5 C 109.167,195.5 111.833,195.5 114.5,195.5C 114.5,217.833 114.5,240.167 114.5,262.5C 108.642,262.178 102.975,262.511 97.5,263.5C 87.5006,262.167 81.8339,256.501 80.5,246.5C 87.2593,246.205 92.426,243.205 96,237.5C 97.4458,223.907 97.9458,210.24 97.5,196.5C 100.713,196.81 103.713,196.477 106.5,195.5 Z"/></g>
<g><path style="opacity:0.986" fill="#77b3ec" d="M 396.5,195.5 C 399.167,195.5 401.833,195.5 404.5,195.5C 407.287,196.477 410.287,196.81 413.5,196.5C 413.054,210.24 413.554,223.907 415,237.5C 418.574,243.205 423.741,246.205 430.5,246.5C 429.619,255.214 424.952,260.714 416.5,263C 409.842,263.5 403.175,263.666 396.5,263.5C 396.5,260.5 396.5,257.5 396.5,254.5C 396.5,234.833 396.5,215.167 396.5,195.5 Z"/></g>
<g><path style="opacity:0.951" fill="#91cbfe" d="M 413.5,196.5 C 416.221,196.963 418.888,197.629 421.5,198.5C 426.511,200.822 429.344,204.822 430,210.5C 430.5,222.495 430.667,234.495 430.5,246.5C 423.741,246.205 418.574,243.205 415,237.5C 413.554,223.907 413.054,210.24 413.5,196.5 Z"/></g>
<g><path style="opacity:1" fill="#53414f" d="M 203.5,204.5 C 208.421,204.043 211.921,206.043 214,210.5C 214.667,214.833 214.667,219.167 214,223.5C 210.816,229.552 206.316,230.886 200.5,227.5C 199.416,226.335 198.583,225.002 198,223.5C 197.333,219.167 197.333,214.833 198,210.5C 199.36,207.977 201.193,205.977 203.5,204.5 Z"/></g>
<g><path style="opacity:1" fill="#503f4e" d="M 302.5,204.5 C 306.95,204.142 310.45,205.808 313,209.5C 313.667,214.5 313.667,219.5 313,224.5C 310.774,228.861 307.274,230.361 302.5,229C 300.333,228.167 298.833,226.667 298,224.5C 297.333,219.5 297.333,214.5 298,209.5C 299.193,207.503 300.693,205.836 302.5,204.5 Z"/></g>
<g><path style="opacity:0.961" fill="#b7b2b8" d="M 114.5,262.5 C 114.517,264.565 114.85,266.565 115.5,268.5C 115.825,294.654 128.492,311.488 153.5,319C 163.116,320.324 172.783,320.824 182.5,320.5C 181.635,323.1 180.968,325.767 180.5,328.5C 181.172,331.512 181.839,334.512 182.5,337.5C 152.985,342.17 128.819,333.17 110,310.5C 100.378,296.348 96.211,280.681 97.5,263.5C 102.975,262.511 108.642,262.178 114.5,262.5 Z"/></g>
<g><path style="opacity:1" fill="#fffefc" d="M 228.5,262.5 C 230.199,262.34 231.866,262.506 233.5,263C 239.301,268.768 246.301,271.268 254.5,270.5C 263.291,271.224 270.958,268.724 277.5,263C 286.215,262.049 289.715,265.882 288,274.5C 283.258,280.463 277.091,284.296 269.5,286C 252.75,290.53 237.75,287.363 224.5,276.5C 220.961,270.364 222.295,265.698 228.5,262.5 Z"/></g>
<g><path style="opacity:0.996" fill="#625360" d="M 211.5,313.5 C 216.131,315.135 219.465,318.135 221.5,322.5C 223.241,328.165 222.575,333.499 219.5,338.5C 217.954,341.2 215.621,343.033 212.5,344C 207.166,345.053 201.833,345.886 196.5,346.5C 190.265,345.93 185.598,342.93 182.5,337.5C 181.839,334.512 181.172,331.512 180.5,328.5C 180.968,325.767 181.635,323.1 182.5,320.5C 182.833,319.833 183.167,319.167 183.5,318.5C 186.333,316.522 189.333,314.689 192.5,313C 198.884,312.249 205.217,312.416 211.5,313.5 Z"/></g>
<g><path style="opacity:1" fill="#fed08d" d="M 221.5,322.5 C 236.282,333.393 252.615,340.726 270.5,344.5C 254.63,346.587 238.963,345.42 223.5,341C 221.68,340.8 220.347,339.966 219.5,338.5C 222.575,333.499 223.241,328.165 221.5,322.5 Z"/></g>
<g><path style="opacity:0.996" fill="#fabd80" d="M 314.5,329.5 C 314.5,342.5 314.5,355.5 314.5,368.5C 313.833,361.988 313.167,355.321 312.5,348.5C 283.729,362.487 253.729,365.987 222.5,359C 219.063,360.105 216.563,362.272 215,365.5C 213.855,370.083 213.189,374.749 213,379.5C 212.337,383.035 210.837,386.035 208.5,388.5C 203.443,385.645 198.777,382.312 194.5,378.5C 195.09,377.234 195.59,375.901 196,374.5C 196.5,365.173 196.666,355.839 196.5,346.5C 201.833,345.886 207.166,345.053 212.5,344C 215.621,343.033 217.954,341.2 219.5,338.5C 220.347,339.966 221.68,340.8 223.5,341C 238.963,345.42 254.63,346.587 270.5,344.5C 286.039,341.876 300.705,336.876 314.5,329.5 Z"/></g>
<g><path style="opacity:0.999" fill="#fed08d" d="M 314.5,368.5 C 314.311,372.037 314.977,375.37 316.5,378.5C 315.71,379.794 314.71,380.961 313.5,382C 294.277,394.733 274.944,407.233 255.5,419.5C 239.546,409.536 223.879,399.202 208.5,388.5C 210.837,386.035 212.337,383.035 213,379.5C 213.189,374.749 213.855,370.083 215,365.5C 216.563,362.272 219.063,360.105 222.5,359C 253.729,365.987 283.729,362.487 312.5,348.5C 313.167,355.321 313.833,361.988 314.5,368.5 Z"/></g>
<g><path style="opacity:0.996" fill="#b8dcfe" d="M 194.5,378.5 C 198.777,382.312 203.443,385.645 208.5,388.5C 223.879,399.202 239.546,409.536 255.5,419.5C 274.944,407.233 294.277,394.733 313.5,382C 314.71,380.961 315.71,379.794 316.5,378.5C 318.95,377.223 321.283,375.723 323.5,374C 326.5,373.333 329.5,373.333 332.5,374C 339.124,381.443 345.124,389.276 350.5,397.5C 352.432,400.177 352.932,403.177 352,406.5C 339.876,421.626 327.376,436.46 314.5,451C 307.687,456.307 300.687,456.64 293.5,452C 280.979,441.311 268.312,430.811 255.5,420.5C 241.933,432.237 227.933,443.404 213.5,454C 205.819,456.001 199.319,454.167 194,448.5C 184.675,436.679 174.842,425.345 164.5,414.5C 162.887,411.714 161.054,409.047 159,406.5C 158.366,403.445 158.532,400.445 159.5,397.5C 165.59,389.565 171.923,381.732 178.5,374C 181.5,373.333 184.5,373.333 187.5,374C 189.717,375.723 192.05,377.223 194.5,378.5 Z"/></g>
<g><path style="opacity:0.982" fill="#77b3ec" d="M 159.5,397.5 C 158.532,400.445 158.366,403.445 159,406.5C 161.054,409.047 162.887,411.714 164.5,414.5C 140.724,420.862 117.057,427.695 93.5,435C 83.7873,439.713 77.2873,447.213 74,457.5C 73.5001,475.164 73.3334,492.83 73.5,510.5C 64.816,507.982 59.316,502.315 57,493.5C 56.3333,480.833 56.3333,468.167 57,455.5C 61.3833,438.454 71.55,426.287 87.5,419C 111.563,411.922 135.563,404.756 159.5,397.5 Z"/></g>
<g><path style="opacity:0.998" fill="#91ccfe" d="M 350.5,397.5 C 374.86,404.508 399.194,411.674 423.5,419C 439.45,426.287 449.617,438.454 454,455.5C 454.667,468.167 454.667,480.833 454,493.5C 451.317,502.682 445.483,508.682 436.5,511.5C 315.833,511.5 195.167,511.5 74.5,511.5C 74.5,510.833 74.1667,510.5 73.5,510.5C 73.3334,492.83 73.5001,475.164 74,457.5C 77.2873,447.213 83.7873,439.713 93.5,435C 117.057,427.695 140.724,420.862 164.5,414.5C 174.842,425.345 184.675,436.679 194,448.5C 199.319,454.167 205.819,456.001 213.5,454C 227.933,443.404 241.933,432.237 255.5,420.5C 268.312,430.811 280.979,441.311 293.5,452C 300.687,456.64 307.687,456.307 314.5,451C 327.376,436.46 339.876,421.626 352,406.5C 352.932,403.177 352.432,400.177 350.5,397.5 Z"/></g>
</svg>
