<svg xmlns="http://www.w3.org/2000/svg" xmlns:xlink="http://www.w3.org/1999/xlink" width="107" zoomAndPan="magnify" viewBox="0 0 80.25 30.000001" height="40" preserveAspectRatio="xMidYMid meet" version="1.0"><defs><g/></defs><g fill="#343f52" fill-opacity="1"><g transform="translate(2.152467, 27.460666)"><g><path d="M 13.03125 0 C 29.007812 0.03125 29.214844 -26.207031 13.234375 -26.234375 L 0.882812 -26.234375 C 2.683594 -18.1875 2.683594 -8.046875 0.882812 0 Z M 7.898438 -5.542969 L 7.898438 -13.796875 C 7.898438 -19.988281 10.464844 -25.234375 14.238281 -25.234375 C 14.5625 -25.234375 14.886719 -25.203125 15.210938 -25.117188 C 17.777344 -24.527344 19.78125 -20.546875 18.894531 -13.03125 C 18.011719 -5.542969 13.738281 -0.972656 10.789062 -0.972656 C 9.136719 -0.972656 7.898438 -2.386719 7.898438 -5.542969 Z M 7.898438 -5.542969 "/></g></g></g><g fill="#343f52" fill-opacity="1"><g transform="translate(28.145343, 27.460666)"><g><path d="M 10.109375 -2.652344 C 10.050781 -1.769531 10.109375 -0.914062 10.375 0 L 18.128906 0 C 15.566406 -4.777344 16.15625 -7.960938 16.597656 -10.847656 C 17.453125 -16.417969 13.824219 -18.953125 9.816406 -18.953125 C 7.488281 -18.953125 5.011719 -18.101562 3.214844 -16.507812 C 1.296875 -14.855469 2.535156 -12.585938 5.21875 -12.882812 C 6.664062 -13.058594 8.429688 -13.796875 8.667969 -16.742188 C 8.726562 -17.597656 9.226562 -18.011719 9.847656 -18.011719 C 10.699219 -18.011719 11.792969 -17.1875 12.234375 -15.710938 C 12.765625 -13.914062 12.382812 -12.261719 11.851562 -11.171875 C 10.699219 -12.085938 9.285156 -12.5 7.839844 -12.5 C 4.273438 -12.5 0.5 -9.964844 -0.0585938 -6.042969 C -0.707031 -1.621094 2.035156 0.617188 4.921875 0.617188 C 6.925781 0.617188 9.019531 -0.472656 10.109375 -2.652344 Z M 5.953125 -6.867188 C 6.632812 -9.609375 8.371094 -11.144531 9.640625 -11.144531 C 10.433594 -11.144531 11.054688 -10.523438 11.054688 -9.167969 C 10.554688 -3.949219 8.84375 -1.828125 7.488281 -1.828125 C 6.160156 -1.828125 5.1875 -3.804688 5.953125 -6.867188 Z M 5.953125 -6.867188 "/></g></g></g><g fill="#343f52" fill-opacity="1"><g transform="translate(46.800095, 27.460666)"><g><path d="M 0.824219 -18.304688 C 2.566406 -11.085938 2.566406 -7.222656 0.824219 0 L 8.578125 0 C 6.839844 -10.730469 10.671875 -16.65625 12.765625 -16.65625 C 13.355469 -16.65625 13.824219 -16.183594 13.972656 -15.210938 C 14.5625 -11.289062 11.085938 -4.1875 12.351562 0 L 20.105469 0 C 15.949219 -7.78125 20.164062 -12.058594 18.628906 -16.390625 C 18.042969 -18.042969 16.714844 -18.894531 15.152344 -18.894531 C 11.878906 -18.894531 7.664062 -15.121094 7.3125 -7.074219 C 7.046875 -10.613281 7.457031 -13.796875 8.578125 -18.304688 Z M 0.824219 -18.304688 "/></g></g></g><g fill="#343f52" fill-opacity="1"><g transform="translate(67.429362, 27.460666)"><g><path d="M 1.003906 0 L 8.753906 0 C 6.988281 -7.222656 6.988281 -11.085938 8.753906 -18.304688 L 1.003906 -18.304688 C 2.742188 -11.085938 2.742188 -7.222656 1.003906 0 Z M 4.980469 -21.136719 C 10.496094 -21.753906 10.523438 -27.945312 4.980469 -27.328125 C -0.589844 -26.679688 -0.558594 -20.515625 4.980469 -21.136719 Z M 4.980469 -21.136719 "/></g></g></g></svg>